PathFileType	4	(X/Y/Z)	pose_F01_0-96.trc
DataRate	CameraRate	NumFrames	NumMarkers	Units	OrigDataRate	OrigDataStartFrame	OrigNumFrames
30	30	7	21	m	30	24	96
Frame#	Time	CHip			RHip			RKnee			RAnkle			RBigToe			RSmallToe			RHeel			LHip			LKnee			LAnkle			LBigToe			LSmallToe			LHeel			Neck			Nose			RShoulder			RElbow			RWrist			LShoulder			LElbow			LWrist			
		X1	Y1	Z1	X2	Y2	Z2	X3	Y3	Z3	X4	Y4	Z4	X5	Y5	Z5	X6	Y6	Z6	X7	Y7	Z7	X8	Y8	Z8	X9	Y9	Z9	X10	Y10	Z10	X11	Y11	Z11	X12	Y12	Z12	X13	Y13	Z13	X14	Y14	Z14	X15	Y15	Z15	X16	Y16	Z16	X17	Y17	Z17	X18	Y18	Z18	X19	Y19	Z19	X20	Y20	Z20	X21	Y21	Z21	
24	0.8	-0.19817662337188988	1.8293353298029067	-0.472325722348235	-0.20906809393187076	1.8283742936449936	-0.4192107918795797	-0.1934598174107988	1.6954862220772018	-0.3975166816796004	-0.1944605753475566	1.6108684735913974	-0.3711509743050615	-0.19976331644240278	1.6214733391516374	-0.3605781476618763	-0.19842940919339627	1.6308152898252077	-0.3352742818038906	-0.18648544581158072	1.611875196555453	-0.36695866106952435	-0.18658178154343277	1.829137887432184	-0.5251105088324541	-0.17556159376620117	1.7025446822720134	-0.5092149608065306	-0.1707800051334041	1.5669984659936453	-0.5079182831371434	-0.20886659083431544	1.534335133008415	-0.5342049513168863	-0.19512333822010325	1.5401874278849776	-0.5491458683878558	-0.1602024281215281	1.5565959301729095	-0.4956128005948184	-0.18799118231249543	1.9754926752114412	-0.4955710151131539	-0.21231091996133888	2.0484415656262875	-0.5226110048030319	-0.20204645299192323	1.9737750652497452	-0.40986189622693764	-0.21484757357779952	1.887815650278911	-0.38091633283351245	-0.23319786093254743	1.819769826919837	-0.3765908949874625	-1.732494723594457	1.889349584337371	1.1429386358033127	-0.1653662921885502	1.8961546595252754	-0.5874890487308749	-0.17437428788873413	1.8261471077998306	-0.5821223698551513
25	0.8333333333333334	-0.1987293501510493	1.8232464920082456	-0.47132095351923065	-0.2094527620561845	1.8234805438227273	-0.418444194457619	-0.19334611757506828	1.696117787295165	-0.39773060460040444	-0.1944605753475566	1.6108684735913974	-0.3711509743050615	-0.19976331644240278	1.6214733391516374	-0.3605781476618763	-0.19842940919339627	1.6308152898252077	-0.3352742818038906	-0.18648544581158072	1.611875196555453	-0.36695866106952435	-0.18687563260830364	1.8231112709740305	-0.5241951382036734	-0.17578298177194288	1.7013386733809044	-0.5087691507867548	-0.17079646326548964	1.5671827295963419	-0.5079263871130192	-0.20690418709704952	1.534957027473688	-0.536425551874432	-0.19541050024073836	1.5420727970391048	-0.5489027187961106	-0.16011875040292936	1.5563267560764977	-0.4955932994215344	-0.1870311523247121	1.9753665210017122	-0.4923617278082231	-0.21425011452488052	2.048394513808958	-0.5204227233318957	-0.20196443348963905	1.9725126873900274	-0.4093677085739114	-0.21466717671064023	1.8879247811297324	-0.3806261808130011	-0.23186490898989104	1.8166880520928805	-0.3729425063693019	-1.742012823903551	1.8894357246598994	1.1601626909101324	-0.16544199850466434	1.8935124282047529	-0.5870509024171405	-0.177487957549753	1.821107207161405	-0.5823542901429765
26	0.8666666666666667	-0.20007194936129474	1.8255291147484478	-0.46962480770714254	-0.21263060158129551	1.8260194914059147	-0.41448211712694805	-0.1934503397550319	1.695429833166602	-0.39757378532330634	-0.1944605753475566	1.6108684735913974	-0.3711509743050615	-0.19976331644240278	1.6214733391516374	-0.3605781476618763	-0.19842940919339627	1.6308152898252077	-0.3352742818038906	-0.18648544581158072	1.611875196555453	-0.36695866106952435	-0.18929554952715635	1.8269135694127334	-0.5257758883057368	-0.17580795566990545	1.6987900540207932	-0.5084347970447656	-0.17276638194584917	1.5668732882756191	-0.5058028090561264	-0.20690488866502246	1.534862679742693	-0.5363621807032863	-0.19512707664887685	1.5404596630792524	-0.5492366492192641	-0.1621049370268123	1.556036806519051	-0.49350084808964295	-0.18798994327549626	1.9753548538200039	-0.495575471739539	-0.21429290789977776	2.0483306672446497	-0.5203519730963434	-0.20196904607623273	1.972483304125066	-0.4093946053094633	-0.21448979806545107	1.886840254040319	-0.3803983553709882	-0.23382686022227678	1.8172005974071848	-0.37988459027524035	-1.7324112784771293	1.8893159919724762	1.1428003479925315	-0.16609762158712962	1.8936639961261326	-0.5902246467444954	-0.17860537829470974	1.8172516901676952	-0.5886775444061685
27	0.9	-0.19830017675409423	1.8214170365386926	-0.47128780736006654	-0.21102059063372272	1.8207361706169742	-0.41596290857565493	-0.1935545619349955	1.694741879038039	-0.3974169660462083	-0.1944605753475566	1.6108684735913974	-0.3711509743050615	-0.19976331644240278	1.6214733391516374	-0.3605781476618763	-0.19842940919339627	1.6308152898252077	-0.3352742818038906	-0.18648544581158072	1.611875196555453	-0.36695866106952435	-0.18942632369307386	1.8227157152495563	-0.525367801259135	-0.1767623339702118	1.6985961355079777	-0.5116739887110467	-0.17268273005171497	1.5666248959780447	-0.5058285661741732	-0.20697563910578526	1.5349863327583877	-0.5363113358212211	-0.1954822950999381	1.5421507100068714	-0.5488057016218583	-0.16010274995459348	1.5563000070907067	-0.4957151486830358	-0.18707527187896336	1.975285062580171	-0.4923776312912391	-0.2154392246238522	2.0469559721418165	-0.5153736176944694	-0.20206222896742315	1.971295594872013	-0.4092856660525862	-0.2146382896266879	1.8878110871789724	-0.38073900156113055	-0.233041429292919	1.8147672463305269	-0.3761704516687501	-1.7324331617224342	1.889340769340825	1.1428252407671005	-0.1662257490624834	1.8948384542529457	-0.5903263504024052	-0.18099020984808925	1.8197018057596799	-0.5866885987623411
28	0.9333333333333333	-0.2016208806328872	1.8205069773709321	-0.47189409741244437	-0.21150197534141849	1.8192735747580766	-0.4157117400186573	-0.19327058794445626	1.6940324777330855	-0.3991388030299707	-0.1944605753475566	1.6108684735913974	-0.3711509743050615	-0.19976331644240278	1.6214733391516374	-0.3605781476618763	-0.19842940919339627	1.6308152898252077	-0.3352742818038906	-0.18648544581158072	1.611875196555453	-0.36695866106952435	-0.19005492314060177	1.8222759609988257	-0.5249966608849145	-0.17693862603587668	1.6968684149403517	-0.5113521368138751	-0.17075522514276886	1.5668371578814733	-0.5079006897907918	-0.2086451701201961	1.5330969320650083	-0.534494727774367	-0.19519666244682735	1.5404251005339014	-0.5490884131150914	-0.1602631747695849	1.5570019398879984	-0.49560779905428776	-0.18513641649055196	1.9752924968517773	-0.4944784684795158	-0.21534351334004634	2.046960578261058	-0.5146608168621621	-0.20102639731591584	1.9711777469480358	-0.4060469813434706	-0.21272937935999203	1.8858928512644135	-0.38258411758230493	-0.2302121450187434	1.812931603194582	-0.37471944084600944	-1.7325740390613504	1.8893819086180899	1.1430675928012555	-0.16613010394152133	1.89310875368852	-0.5900489717168348	-0.18191350603246914	1.816638777495439	-0.5895548668239929
29	0.9666666666666667	-0.1995324585313177	1.8218216696406262	-0.4742944731122348	-0.20962639605265765	1.819617184073322	-0.41785461385611133	-0.19298661395391697	1.693323076428132	-0.4008606400137331	-0.1944605753475566	1.6108684735913974	-0.3711509743050615	-0.19976331644240278	1.6214733391516374	-0.3605781476618763	-0.19842940919339627	1.6308152898252077	-0.3352742818038906	-0.18648544581158072	1.611875196555453	-0.36695866106952435	-0.18979843035397367	1.8231592947230082	-0.5253319882755204	-0.17668348820477056	1.6978552560768327	-0.5118606286083587	-0.17077359914429102	1.5670293690098873	-0.5078491887803759	-0.20932761429599755	1.5339133445860462	-0.5336582422357938	-0.19561525462974588	1.5398054806344184	-0.5485299366645465	-0.15924334403638435	1.5569413340311566	-0.4919889980619953	-0.1851047849234515	1.9753160575418742	-0.4945640870304281	-0.21533477276086535	2.048120163705817	-0.5151937536366765	-0.19897502340873358	1.9723821651487026	-0.4083268432329078	-0.212764102310289	1.8857643731447764	-0.3824285894984472	-0.23006352382542244	1.8140963977706834	-0.3749650814552382	-1.7316150001143755	1.88942611747686	1.1418847907483898	-0.16619861020807752	1.8944993234930787	-0.590372967593332	-0.18408320145582957	1.8225701888465964	-0.5880544689600439
30	1.0	-0.20013453641235482	1.8218856925522868	-0.47423138504127355	-0.2109664713192428	1.8205549284346756	-0.4211893258003412	-0.19270263996337772	1.6926136751231784	-0.4025824769974955	-0.1944605753475566	1.6108684735913974	-0.3711509743050615	-0.19976331644240278	1.6214733391516374	-0.3605781476618763	-0.19842940919339627	1.6308152898252077	-0.3352742818038906	-0.18648544581158072	1.611875196555453	-0.36695866106952435	-0.19124892683135541	1.8225727309023088	-0.5282446940342927	-0.17493997982797255	1.6966005779834692	-0.5135814066967147	-0.1707733317411784	1.5670753522382719	-0.5079895088383277	-0.20893582706400718	1.5346268531357954	-0.5342443730553936	-0.195485372257582	1.5421103591821816	-0.5488261816240879	-0.16010845800136386	1.556523506656839	-0.4957243855341594	-0.18606330193485934	1.975339748390084	-0.4977865802640087	-0.21536828438762554	2.0481174836982845	-0.5151935123030209	-0.20009592293088135	1.9713797423385029	-0.4115444432064768	-0.21179233115525345	1.8867754459079524	-0.3794384478050896	-0.2312647592442798	1.8166174758065186	-0.37845913285862165	-1.7222547744495116	1.8893363544317785	1.1249787099693938	-0.16706409644635484	1.8947062148956282	-0.5935225944512712	-0.18481203090712503	1.821386064050329	-0.5911729083246788
